# xmcd CD database file
#
# Track frame offsets:
#	150
#	5266
#	21513
#	34654
#	56492
#	69771
#	108386
#	126701
#	134002
#	154820
#	167871
#	189898
#	209564
#	226970
#	247413
#
# Disc length: 3605 seconds
#
# Revision: 0
# Processed by: cddbd v1.5.1PL0 Copyright (c) Steve Scherf et al.
# Submitted via: CDex 1.51
#
DISCID=d90e130f
DTITLE=darkvirus - 4th dimension
DYEAR=2000
DGENRE=サウンドトラック (一般)
TTITLE0=darkvirus/alphavirus
TTITLE1=darkvirus/visionz
TTITLE2=darkvirus/4th dimension
TTITLE3=darkvirus/out of the mode 20
TTITLE4=darkvirus/underwater
TTITLE5=darkvirus/love sensation(burningup)
TTITLE6=darkvirus/getfunk
TTITLE7=darkvirus/cutting the beat
TTITLE8=darkvirus/gateout
TTITLE9=darkvirus/origin(space rendezvous mix)
TTITLE10=darkvirus/a-z
TTITLE11=darkvirus/into the mode 21
TTITLE12=darkvirus/eclipse
TTITLE13=darkvirus/omegavirus
TTITLE14=aya nanase compsed by masayoshi minoshima/whitenight
EXTD=YEAR: 2000
EXTT0=
EXTT1=
EXTT2=
EXTT3=
EXTT4=
EXTT5=
EXTT6=
EXTT7=
EXTT8=
EXTT9=
EXTT10=
EXTT11=
EXTT12=
EXTT13=
EXTT14=
PLAYORDER=
